<svg width="720" height="720" xmlns="http://www.w3.org/2000/svg" xmlns:xlink="http://www.w3.org/1999/xlink" xml:space="preserve" overflow="hidden"><g transform="translate(-116 -19)"><path d="M500 176.5C500 130.75 463.25 94 417.5 94 371.75 94 335 130.75 335 176.5 335 199.75 344.75 221.5 361.25 237.25L361.25 197.5C350 166.75 365.75 132.25 396.5 120.25 427.25 108.25 461.75 124.75 473.75 155.5 479 169 479 184 473.75 197.5L473.75 236.5C490.25 221.5 500 199 500 176.5Z" fill="#FFFFFF"/><path d="M417.5 49C347 49 290 106 290 176.5 290 225.25 317.75 269.5 361.25 291.25L361.25 265.75C312.5 235 297.5 169.75 329 121 360.5 72.25 424.25 56.5 473.75 88 523.25 119.5 537.5 184 506 232.75 497.75 245.5 486.5 256.75 473.75 265L473.75 290.5C536.75 259.75 563 183.25 532.25 120.25 510.5 76.75 465.5 49 417.5 49Z" fill="#FFFFFF"/><path d="M383.75 176.5 383.75 504.25 383.75 504.25 355.25 379C350.75 361 332.75 349.75 314.75 353.5 296.75 358 285.5 375.25 289.25 393.25L329.75 576.25C331.25 583.75 335.75 591.25 342.5 595.75L417.5 653.5 417.5 704.5 614 704.5 614 671.5C614 623.5 668 619.75 668 529L668 406.75C668 384.25 650 366.25 627.5 366.25 617 366.25 607.25 370 599.75 376.75 599.75 375.25 599.75 374.5 599.75 373 599.75 350.5 581.75 332.5 559.25 332.5 548.75 332.5 538.25 336.25 530.75 343.75 525.5 322 503.75 307.75 482 313 463.25 317.5 450.5 333.25 450.5 352L449.75 352 449.75 176.5C449.75 157.75 434.75 142.75 416 142.75 398.75 142.75 383.75 157.75 383.75 176.5Z" fill="#FFFFFF"/></g></svg>